<?xml version="1.0" standalone="no"?>
<!DOCTYPE svg PUBLIC "-//W3C//DTD SVG 20010904//EN"
 "http://www.w3.org/TR/2001/REC-SVG-20010904/DTD/svg10.dtd">
<svg version="1.0" xmlns="http://www.w3.org/2000/svg"
 width="501.000000pt" height="501.000000pt" viewBox="0 0 501.000000 501.000000"
 preserveAspectRatio="xMidYMid meet">
<metadata>
Created by potrace 1.11, written by Peter Selinger 2001-2013
</metadata>
<g transform="translate(0.000000,501.000000) scale(0.100000,-0.100000)"
fill="#000000" stroke="none">
<path d="M669 3958 c-1 -41 -1 -2753 0 -2790 l1 -27 155 0 155 0 0 644 0 645
788 0 789 0 0 -615 0 -615 -36 -1 c-20 0 -55 0 -77 1 -39 1 -42 0 -46 -29 l-5
-31 324 0 324 0 -3 28 c-3 27 -4 27 -83 29 l-80 1 -2 514 c-2 484 -1 518 18
593 61 246 223 429 440 496 111 35 249 28 315 -16 69 -45 117 -131 130 -231 5
-44 10 -1235 5 -1324 -1 -13 -24 -15 -148 -15 l-148 0 -3 -28 c-2 -17 1 -27
10 -28 19 0 877 0 910 0 19 1 25 5 23 19 -2 9 -4 22 -4 27 -1 7 -53 10 -146
10 -139 -1 -146 0 -150 20 -2 11 -3 274 -3 585 1 311 -2 593 -6 628 -17 157
-92 279 -213 347 -57 32 -171 71 -233 80 -77 10 -228 6 -303 -10 -203 -42
-393 -193 -477 -378 -20 -42 -20 -40 -17 698 l2 740 80 0 80 0 1 28 c1 23 -3
27 -25 28 -14 0 -156 0 -315 1 -299 0 -309 -2 -299 -41 3 -13 17 -16 71 -16
37 1 72 0 78 -2 8 -3 11 -178 11 -603 l0 -600 -789 0 -788 0 0 635 0 635 -155
0 -155 0 -1 -32z"/>
</g>
</svg>
